<svg xmlns="http://www.w3.org/2000/svg" width="12" height="12" viewBox="0 0 12 12">
  <path fill="#666" d="M7.1184,6.24 L11.2416,2.1168 C11.6167118,1.7416882 11.6167118,1.1335118 11.2416,0.7584 C10.8664882,0.383288198 10.2583118,0.383288198 9.8832,0.7584 L5.76,4.8816 L1.6368,0.7632 C1.25591013,0.437014276 0.688133595,0.458945021 0.333539308,0.813539308 C-0.0210549789,1.1681336 -0.0429857241,1.73591013 0.2832,2.1168 L4.4016,6.24 L0.2832,10.3632 C-0.0919118021,10.7383118 -0.0919118021,11.3464882 0.2832,11.7216 C0.658311802,12.0967118 1.2664882,12.0967118 1.6416,11.7216 L5.76,7.5984 L9.8832,11.7216 C10.2583118,12.0967118 10.8664882,12.0967118 11.2416,11.7216 C11.6167118,11.3464882 11.6167118,10.7383118 11.2416,10.3632 L7.1184,6.24 Z"/>
</svg>
